<?xml version="1.0" encoding="UTF-8"?> <svg xmlns="http://www.w3.org/2000/svg" width="1244" height="388" viewBox="0 0 1244 388" fill="none"> <g clip-path="url(#clip0_716_31)"> <path d="M93.4432 34.113C99.5322 14.425 117.736 1 138.345 1H1195.23C1228.7 1 1251.44 34.9807 1238.69 65.9177L1239.61 66.299L1238.69 65.918L1236.65 70.8682C1230.62 85.4715 1216.38 95 1200.59 95H1112C1093.78 95 1079 109.775 1079 128C1079 146.225 1093.78 161 1112 161H1141.21C1168.98 161 1187.84 189.197 1177.26 214.868L1175.61 218.868L1176.53 219.249L1175.61 218.868C1169.59 233.471 1155.35 243 1139.56 243H1060C1041.78 243 1027 257.775 1027 276C1027 294.225 1041.78 309 1060 309H1085.53C1110.75 309 1127.88 334.606 1118.27 357.918L1119.19 358.299L1118.27 357.918C1111.01 375.516 1093.85 387 1074.82 387H48.0354C16.3851 387 -6.21786 356.35 3.13384 326.112L93.4432 34.113Z" fill="#E8F2FC" stroke="#136EF6" stroke-width="2"></path> </g> <defs> <clipPath id="clip0_716_31"> <rect width="1244" height="388" fill="white"></rect> </clipPath> </defs> </svg> 