<?xml version="1.0" encoding="UTF-8"?> <svg xmlns="http://www.w3.org/2000/svg" width="374" height="112" viewBox="0 0 374 112" fill="none"> <path d="M0.0964319 8.85031L19.583 105.065C19.9801 107.015 21.5681 108.806 24.037 110.088C26.5058 111.369 29.6781 112.05 32.9346 111.997L308.664 107.417C311.155 107.377 313.576 106.907 315.64 106.065C317.704 105.222 319.326 104.041 320.314 102.661L372.931 29.1964C373.751 28.0491 374.108 26.8008 373.972 25.5541C373.836 24.3074 373.211 23.098 372.148 22.0254C371.086 20.9529 369.616 20.0479 367.86 19.3849C366.104 18.722 364.112 18.32 362.049 18.2121L14.2167 0.029394C12.276 -0.0718955 10.3223 0.0893511 8.49811 0.501371C6.67391 0.913391 5.02518 1.56579 3.67221 2.41099C2.31924 3.2562 1.29613 4.27288 0.677516 5.38689C0.0589016 6.5009 -0.139615 7.68414 0.0964319 8.85031Z" fill="#F66052"></path> </svg> 